# xmcd
#
# Track frame offsets:
# 150
# 16542
# 30155
# 46865
# 64055
# 76992
# 87492
# 102752
# 111117
# 126222
# 138212
# 152305
# 164505
# 176810
#
# Disc length: 2532 seconds
#
#
# Revision: 0
# Processed by: cddbd v1.5.1PL2 Copyright (c) Steve Scherf et al.
# Submitted via: FreeRIP 2.945 
#
DISCID=9e09e20e
DTITLE=As Mineirinhas - 
DYEAR=1900
DGENRE=
TTITLE0=Menina apaixonada
TTITLE1=Você é minha devoção
TTITLE2=Cartas na mesa
TTITLE3=Menina outra vez
TTITLE4=Deixem que fale de nós
TTITLE5=Desejo e paixão
TTITLE6=Ilusão à toa
TTITLE7=Moreno você me mata
TTITLE8=Noite de aventura
TTITLE9=Cama enfeitada
TTITLE10=Não sofra assim, paixão (bobinho)
TTITLE11=Chamego bom
TTITLE12=Pedaço de mau caminho
TTITLE13=Te amo, te amo
EXTD=
EXTT0=
EXTT1=
EXTT2=
EXTT3=
EXTT4=
EXTT5=
EXTT6=
EXTT7=
EXTT8=
EXTT9=
EXTT10=
EXTT11=
EXTT12=
EXTT13=
PLAYORDER=
